<?xml version="1.0" standalone="no"?>
<!DOCTYPE svg PUBLIC "-//W3C//DTD SVG 1.1//EN" "http://www.w3.org/Graphics/SVG/1.1/DTD/svg11.dtd">
<svg version="1.1" width="1200" height="358" onload="init(evt)" viewBox="0 0 1200 358" xmlns="http://www.w3.org/2000/svg" xmlns:xlink="http://www.w3.org/1999/xlink">
<!-- Flame graph stack visualization. See https://github.com/brendangregg/FlameGraph for latest version, and http://www.brendangregg.com/flamegraphs.html for examples. -->
<!-- NOTES:  -->
<defs>
	<linearGradient id="background" y1="0" y2="1" x1="0" x2="0" >
		<stop stop-color="#eeeeee" offset="5%" />
		<stop stop-color="#eeeeb0" offset="95%" />
	</linearGradient>
</defs>
<style type="text/css">
	text { font-family:Verdana; font-size:12px; fill:rgb(0,0,0); }
	#search, #ignorecase { opacity:0.1; cursor:pointer; }
	#search:hover, #search.show, #ignorecase:hover, #ignorecase.show { opacity:1; }
	#subtitle { text-anchor:middle; font-color:rgb(160,160,160); }
	#title { text-anchor:middle; font-size:17px}
	#unzoom { cursor:pointer; }
	#frames > *:hover { stroke:black; stroke-width:0.5; cursor:pointer; }
	.hide { display:none; }
	.parent { opacity:0.5; }
</style>
<script type="text/ecmascript">
<![CDATA[
	"use strict";
	var details, searchbtn, unzoombtn, matchedtxt, svg, searching, currentSearchTerm, ignorecase, ignorecaseBtn;
	function init(evt) {
		details = document.getElementById("details").firstChild;
		searchbtn = document.getElementById("search");
		ignorecaseBtn = document.getElementById("ignorecase");
		unzoombtn = document.getElementById("unzoom");
		matchedtxt = document.getElementById("matched");
		svg = document.getElementsByTagName("svg")[0];
		searching = 0;
		currentSearchTerm = null;

		// use GET parameters to restore a flamegraphs state.
		var params = get_params();
		if (params.x && params.y)
			zoom(find_group(document.querySelector('[x="' + params.x + '"][y="' + params.y + '"]')));
                if (params.s) search(params.s);
	}

	// event listeners
	window.addEventListener("click", function(e) {
		var target = find_group(e.target);
		if (target) {
			if (target.nodeName == "a") {
				if (e.ctrlKey === false) return;
				e.preventDefault();
			}
			if (target.classList.contains("parent")) unzoom();
			zoom(target);
			if (!document.querySelector('.parent')) {
				clearzoom();
				return;
			}

			// set parameters for zoom state
			var el = target.querySelector("rect");
			if (el && el.attributes && el.attributes.y && el.attributes._orig_x) {
				var params = get_params()
				params.x = el.attributes._orig_x.value;
				params.y = el.attributes.y.value;
				history.replaceState(null, null, parse_params(params));
			}
		}
		else if (e.target.id == "unzoom") clearzoom();
		else if (e.target.id == "search") search_prompt();
		else if (e.target.id == "ignorecase") toggle_ignorecase();
	}, false)

	// mouse-over for info
	// show
	window.addEventListener("mouseover", function(e) {
		var target = find_group(e.target);
		if (target) details.nodeValue = "Function: " + g_to_text(target);
	}, false)

	// clear
	window.addEventListener("mouseout", function(e) {
		var target = find_group(e.target);
		if (target) details.nodeValue = ' ';
	}, false)

	// ctrl-F for search
	// ctrl-I to toggle case-sensitive search
	window.addEventListener("keydown",function (e) {
		if (e.keyCode === 114 || (e.ctrlKey && e.keyCode === 70)) {
			e.preventDefault();
			search_prompt();
		}
		else if (e.ctrlKey && e.keyCode === 73) {
			e.preventDefault();
			toggle_ignorecase();
		}
	}, false)

	// functions
	function get_params() {
		var params = {};
		var paramsarr = window.location.search.substr(1).split('&');
		for (var i = 0; i < paramsarr.length; ++i) {
			var tmp = paramsarr[i].split("=");
			if (!tmp[0] || !tmp[1]) continue;
			params[tmp[0]]  = decodeURIComponent(tmp[1]);
		}
		return params;
	}
	function parse_params(params) {
		var uri = "?";
		for (var key in params) {
			uri += key + '=' + encodeURIComponent(params[key]) + '&';
		}
		if (uri.slice(-1) == "&")
			uri = uri.substring(0, uri.length - 1);
		if (uri == '?')
			uri = window.location.href.split('?')[0];
		return uri;
	}
	function find_child(node, selector) {
		var children = node.querySelectorAll(selector);
		if (children.length) return children[0];
	}
	function find_group(node) {
		var parent = node.parentElement;
		if (!parent) return;
		if (parent.id == "frames") return node;
		return find_group(parent);
	}
	function orig_save(e, attr, val) {
		if (e.attributes["_orig_" + attr] != undefined) return;
		if (e.attributes[attr] == undefined) return;
		if (val == undefined) val = e.attributes[attr].value;
		e.setAttribute("_orig_" + attr, val);
	}
	function orig_load(e, attr) {
		if (e.attributes["_orig_"+attr] == undefined) return;
		e.attributes[attr].value = e.attributes["_orig_" + attr].value;
		e.removeAttribute("_orig_"+attr);
	}
	function g_to_text(e) {
		var text = find_child(e, "title").firstChild.nodeValue;
		return (text)
	}
	function g_to_func(e) {
		var func = g_to_text(e);
		// if there's any manipulation we want to do to the function
		// name before it's searched, do it here before returning.
		return (func);
	}
	function update_text(e) {
		var r = find_child(e, "rect");
		var t = find_child(e, "text");
		var w = parseFloat(r.attributes.width.value) -3;
		var txt = find_child(e, "title").textContent.replace(/\([^(]*\)$/,"");
		t.attributes.x.value = parseFloat(r.attributes.x.value) + 3;

		// Smaller than this size won't fit anything
		if (w < 2 * 12 * 0.59) {
			t.textContent = "";
			return;
		}

		t.textContent = txt;
		// Fit in full text width
		if (/^ *$/.test(txt) || t.getSubStringLength(0, txt.length) < w)
			return;

		for (var x = txt.length - 2; x > 0; x--) {
			if (t.getSubStringLength(0, x + 2) <= w) {
				t.textContent = txt.substring(0, x) + "..";
				return;
			}
		}
		t.textContent = "";
	}

	// zoom
	function zoom_reset(e) {
		if (e.attributes != undefined) {
			orig_load(e, "x");
			orig_load(e, "width");
		}
		if (e.childNodes == undefined) return;
		for (var i = 0, c = e.childNodes; i < c.length; i++) {
			zoom_reset(c[i]);
		}
	}
	function zoom_child(e, x, ratio) {
		if (e.attributes != undefined) {
			if (e.attributes.x != undefined) {
				orig_save(e, "x");
				e.attributes.x.value = (parseFloat(e.attributes.x.value) - x - 10) * ratio + 10;
				if (e.tagName == "text")
					e.attributes.x.value = find_child(e.parentNode, "rect[x]").attributes.x.value + 3;
			}
			if (e.attributes.width != undefined) {
				orig_save(e, "width");
				e.attributes.width.value = parseFloat(e.attributes.width.value) * ratio;
			}
		}

		if (e.childNodes == undefined) return;
		for (var i = 0, c = e.childNodes; i < c.length; i++) {
			zoom_child(c[i], x - 10, ratio);
		}
	}
	function zoom_parent(e) {
		if (e.attributes) {
			if (e.attributes.x != undefined) {
				orig_save(e, "x");
				e.attributes.x.value = 10;
			}
			if (e.attributes.width != undefined) {
				orig_save(e, "width");
				e.attributes.width.value = parseInt(svg.width.baseVal.value) - (10 * 2);
			}
		}
		if (e.childNodes == undefined) return;
		for (var i = 0, c = e.childNodes; i < c.length; i++) {
			zoom_parent(c[i]);
		}
	}
	function zoom(node) {
		var attr = find_child(node, "rect").attributes;
		var width = parseFloat(attr.width.value);
		var xmin = parseFloat(attr.x.value);
		var xmax = parseFloat(xmin + width);
		var ymin = parseFloat(attr.y.value);
		var ratio = (svg.width.baseVal.value - 2 * 10) / width;

		// XXX: Workaround for JavaScript float issues (fix me)
		var fudge = 0.0001;

		unzoombtn.classList.remove("hide");

		var el = document.getElementById("frames").children;
		for (var i = 0; i < el.length; i++) {
			var e = el[i];
			var a = find_child(e, "rect").attributes;
			var ex = parseFloat(a.x.value);
			var ew = parseFloat(a.width.value);
			var upstack;
			// Is it an ancestor
			if (0 == 0) {
				upstack = parseFloat(a.y.value) > ymin;
			} else {
				upstack = parseFloat(a.y.value) < ymin;
			}
			if (upstack) {
				// Direct ancestor
				if (ex <= xmin && (ex+ew+fudge) >= xmax) {
					e.classList.add("parent");
					zoom_parent(e);
					update_text(e);
				}
				// not in current path
				else
					e.classList.add("hide");
			}
			// Children maybe
			else {
				// no common path
				if (ex < xmin || ex + fudge >= xmax) {
					e.classList.add("hide");
				}
				else {
					zoom_child(e, xmin, ratio);
					update_text(e);
				}
			}
		}
		search();
	}
	function unzoom() {
		unzoombtn.classList.add("hide");
		var el = document.getElementById("frames").children;
		for(var i = 0; i < el.length; i++) {
			el[i].classList.remove("parent");
			el[i].classList.remove("hide");
			zoom_reset(el[i]);
			update_text(el[i]);
		}
		search();
	}
	function clearzoom() {
		unzoom();

		// remove zoom state
		var params = get_params();
		if (params.x) delete params.x;
		if (params.y) delete params.y;
		history.replaceState(null, null, parse_params(params));
	}

	// search
	function toggle_ignorecase() {
		ignorecase = !ignorecase;
		if (ignorecase) {
			ignorecaseBtn.classList.add("show");
		} else {
			ignorecaseBtn.classList.remove("show");
		}
		reset_search();
		search();
	}
	function reset_search() {
		var el = document.querySelectorAll("#frames rect");
		for (var i = 0; i < el.length; i++) {
			orig_load(el[i], "fill")
		}
		var params = get_params();
		delete params.s;
		history.replaceState(null, null, parse_params(params));
	}
	function search_prompt() {
		if (!searching) {
			var term = prompt("Enter a search term (regexp " +
			    "allowed, eg: ^ext4_)"
			    + (ignorecase ? ", ignoring case" : "")
			    + "\nPress Ctrl-i to toggle case sensitivity", "");
			if (term != null) search(term);
		} else {
			reset_search();
			searching = 0;
			currentSearchTerm = null;
			searchbtn.classList.remove("show");
			searchbtn.firstChild.nodeValue = "Search"
			matchedtxt.classList.add("hide");
			matchedtxt.firstChild.nodeValue = ""
		}
	}
	function search(term) {
		if (term) currentSearchTerm = term;

		var re = new RegExp(currentSearchTerm, ignorecase ? 'i' : '');
		var el = document.getElementById("frames").children;
		var matches = new Object();
		var maxwidth = 0;
		for (var i = 0; i < el.length; i++) {
			var e = el[i];
			var func = g_to_func(e);
			var rect = find_child(e, "rect");
			if (func == null || rect == null)
				continue;

			// Save max width. Only works as we have a root frame
			var w = parseFloat(rect.attributes.width.value);
			if (w > maxwidth)
				maxwidth = w;

			if (func.match(re)) {
				// highlight
				var x = parseFloat(rect.attributes.x.value);
				orig_save(rect, "fill");
				rect.attributes.fill.value = "rgb(230,0,230)";

				// remember matches
				if (matches[x] == undefined) {
					matches[x] = w;
				} else {
					if (w > matches[x]) {
						// overwrite with parent
						matches[x] = w;
					}
				}
				searching = 1;
			}
		}
		if (!searching)
			return;
		var params = get_params();
		params.s = currentSearchTerm;
		history.replaceState(null, null, parse_params(params));

		searchbtn.classList.add("show");
		searchbtn.firstChild.nodeValue = "Reset Search";

		// calculate percent matched, excluding vertical overlap
		var count = 0;
		var lastx = -1;
		var lastw = 0;
		var keys = Array();
		for (k in matches) {
			if (matches.hasOwnProperty(k))
				keys.push(k);
		}
		// sort the matched frames by their x location
		// ascending, then width descending
		keys.sort(function(a, b){
			return a - b;
		});
		// Step through frames saving only the biggest bottom-up frames
		// thanks to the sort order. This relies on the tree property
		// where children are always smaller than their parents.
		var fudge = 0.0001;	// JavaScript floating point
		for (var k in keys) {
			var x = parseFloat(keys[k]);
			var w = matches[keys[k]];
			if (x >= lastx + lastw - fudge) {
				count += w;
				lastx = x;
				lastw = w;
			}
		}
		// display matched percent
		matchedtxt.classList.remove("hide");
		var pct = 100 * count / maxwidth;
		if (pct != 100) pct = pct.toFixed(1)
		matchedtxt.firstChild.nodeValue = "Matched: " + pct + "%";
	}
]]>
</script>
<rect x="0.0" y="0" width="1200.0" height="358.0" fill="url(#background)"  />
<text id="title" x="600.00" y="24" >Flame Graph</text>
<text id="details" x="10.00" y="341" > </text>
<text id="unzoom" x="10.00" y="24" class="hide">Reset Zoom</text>
<text id="search" x="1090.00" y="24" >Search</text>
<text id="ignorecase" x="1174.00" y="24" >ic</text>
<text id="matched" x="1090.00" y="341" > </text>
<g id="frames">
<g >
<title>handle_domain_irq (26 samples, 0.01%)</title><rect x="350.6" y="229" width="0.1" height="15.0" fill="rgb(208,64,18)" rx="2" ry="2" />
<text  x="353.60" y="239.5" ></text>
</g>
<g >
<title>do_futex (65 samples, 0.02%)</title><rect x="1185.6" y="213" width="0.3" height="15.0" fill="rgb(235,125,22)" rx="2" ry="2" />
<text  x="1188.60" y="223.5" ></text>
</g>
<g >
<title>__se_sys_futex_time32 (48 samples, 0.02%)</title><rect x="1173.6" y="245" width="0.2" height="15.0" fill="rgb(250,156,33)" rx="2" ry="2" />
<text  x="1176.56" y="255.5" ></text>
</g>
<g >
<title>handle_domain_irq (31 samples, 0.01%)</title><rect x="928.6" y="229" width="0.1" height="15.0" fill="rgb(227,198,43)" rx="2" ry="2" />
<text  x="931.57" y="239.5" ></text>
</g>
<g >
<title>[unknown] (53,443 samples, 19.00%)</title><rect x="647.8" y="277" width="224.3" height="15.0" fill="rgb(234,56,25)" rx="2" ry="2" />
<text  x="650.83" y="287.5" >[unknown]</text>
</g>
<g >
<title>schedule (27 samples, 0.01%)</title><rect x="648.2" y="165" width="0.1" height="15.0" fill="rgb(253,51,34)" rx="2" ry="2" />
<text  x="651.17" y="175.5" ></text>
</g>
<g >
<title>ksys_write (37 samples, 0.01%)</title><rect x="1173.8" y="229" width="0.1" height="15.0" fill="rgb(248,143,21)" rx="2" ry="2" />
<text  x="1176.79" y="239.5" ></text>
</g>
<g >
<title>[libEGL_mesa.so.0.0.0] (42 samples, 0.01%)</title><rect x="1172.0" y="277" width="0.2" height="15.0" fill="rgb(235,204,50)" rx="2" ry="2" />
<text  x="1175.03" y="287.5" ></text>
</g>
<g >
<title>[libpthread-2.31.so] (118 samples, 0.04%)</title><rect x="647.9" y="261" width="0.5" height="15.0" fill="rgb(214,152,27)" rx="2" ry="2" />
<text  x="650.89" y="271.5" ></text>
</g>
<g >
<title>futex_wake (38 samples, 0.01%)</title><rect x="79.6" y="197" width="0.2" height="15.0" fill="rgb(235,143,38)" rx="2" ry="2" />
<text  x="82.64" y="207.5" ></text>
</g>
<g >
<title>__ret_fast_syscall (56 samples, 0.02%)</title><rect x="946.5" y="245" width="0.2" height="15.0" fill="rgb(233,111,25)" rx="2" ry="2" />
<text  x="949.49" y="255.5" ></text>
</g>
<g >
<title>handle_domain_irq (43 samples, 0.02%)</title><rect x="301.1" y="213" width="0.1" height="15.0" fill="rgb(235,141,17)" rx="2" ry="2" />
<text  x="304.06" y="223.5" ></text>
</g>
<g >
<title>copy_page_from_iter (1,155 samples, 0.41%)</title><rect x="1179.1" y="85" width="4.9" height="15.0" fill="rgb(230,211,42)" rx="2" ry="2" />
<text  x="1182.12" y="95.5" ></text>
</g>
<g >
<title>[perf-846.map] (52,218 samples, 18.57%)</title><rect x="946.7" y="261" width="219.2" height="15.0" fill="rgb(249,98,8)" rx="2" ry="2" />
<text  x="949.74" y="271.5" >[perf-846.map]</text>
</g>
<g >
<title>[libarmmem-v7l.so] (12,398 samples, 4.41%)</title><rect x="10.0" y="277" width="52.0" height="15.0" fill="rgb(254,193,19)" rx="2" ry="2" />
<text  x="13.00" y="287.5" >[liba..</text>
</g>
<g >
<title>[libEGL.so.1.1.0] (28 samples, 0.01%)</title><rect x="1177.0" y="261" width="0.1" height="15.0" fill="rgb(235,155,11)" rx="2" ry="2" />
<text  x="1179.96" y="271.5" ></text>
</g>
<g >
<title>llvmpipe-3 (71,454 samples, 25.41%)</title><rect x="872.1" y="293" width="299.8" height="15.0" fill="rgb(211,61,14)" rx="2" ry="2" />
<text  x="875.09" y="303.5" >llvmpipe-3</text>
</g>
<g >
<title>__se_sys_futex_time32 (48 samples, 0.02%)</title><rect x="367.3" y="229" width="0.2" height="15.0" fill="rgb(250,157,11)" rx="2" ry="2" />
<text  x="370.25" y="239.5" ></text>
</g>
<g >
<title>[libpthread-2.31.so] (140 samples, 0.05%)</title><rect x="79.3" y="261" width="0.6" height="15.0" fill="rgb(235,61,50)" rx="2" ry="2" />
<text  x="82.28" y="271.5" ></text>
</g>
<g >
<title>[swrast_dri.so] (3,816 samples, 1.36%)</title><rect x="350.9" y="277" width="16.0" height="15.0" fill="rgb(226,175,36)" rx="2" ry="2" />
<text  x="353.94" y="287.5" ></text>
</g>
<g >
<title>do_work_pending (25 samples, 0.01%)</title><rect x="946.1" y="245" width="0.2" height="15.0" fill="rgb(242,38,52)" rx="2" ry="2" />
<text  x="949.15" y="255.5" ></text>
</g>
<g >
<title>wake_up_q (30 samples, 0.01%)</title><rect x="79.7" y="181" width="0.1" height="15.0" fill="rgb(248,142,26)" rx="2" ry="2" />
<text  x="82.67" y="191.5" ></text>
</g>
<g >
<title>__se_sys_futex_time32 (56 samples, 0.02%)</title><rect x="946.5" y="229" width="0.2" height="15.0" fill="rgb(250,64,1)" rx="2" ry="2" />
<text  x="949.49" y="239.5" ></text>
</g>
<g >
<title>[swrast_dri.so] (346 samples, 0.12%)</title><rect x="1187.4" y="261" width="1.5" height="15.0" fill="rgb(235,196,28)" rx="2" ry="2" />
<text  x="1190.44" y="271.5" ></text>
</g>
<g >
<title>__irq_usr (71 samples, 0.03%)</title><rect x="1165.4" y="245" width="0.3" height="15.0" fill="rgb(254,36,52)" rx="2" ry="2" />
<text  x="1168.41" y="255.5" ></text>
</g>
<g >
<title>__se_sys_writev (1,634 samples, 0.58%)</title><rect x="1178.4" y="229" width="6.8" height="15.0" fill="rgb(220,145,42)" rx="2" ry="2" />
<text  x="1181.36" y="239.5" ></text>
</g>
<g >
<title>handle_domain_irq (56 samples, 0.02%)</title><rect x="584.5" y="213" width="0.2" height="15.0" fill="rgb(218,177,34)" rx="2" ry="2" />
<text  x="587.50" y="223.5" ></text>
</g>
<g >
<title>run_rebalance_domains (24 samples, 0.01%)</title><rect x="1165.5" y="165" width="0.1" height="15.0" fill="rgb(219,44,43)" rx="2" ry="2" />
<text  x="1168.54" y="175.5" ></text>
</g>
<g >
<title>do_work_pending (27 samples, 0.01%)</title><rect x="866.0" y="229" width="0.1" height="15.0" fill="rgb(247,76,46)" rx="2" ry="2" />
<text  x="868.97" y="239.5" ></text>
</g>
<g >
<title>[stars] (33 samples, 0.01%)</title><rect x="1175.0" y="261" width="0.1" height="15.0" fill="rgb(209,134,30)" rx="2" ry="2" />
<text  x="1177.99" y="271.5" ></text>
</g>
<g >
<title>__ret_fast_syscall (48 samples, 0.02%)</title><rect x="367.3" y="245" width="0.2" height="15.0" fill="rgb(227,202,9)" rx="2" ry="2" />
<text  x="370.25" y="255.5" ></text>
</g>
<g >
<title>_raw_spin_unlock_irqrestore (31 samples, 0.01%)</title><rect x="1184.0" y="85" width="0.1" height="15.0" fill="rgb(221,104,30)" rx="2" ry="2" />
<text  x="1186.98" y="95.5" ></text>
</g>
<g >
<title>[swrast_dri.so] (3,620 samples, 1.29%)</title><rect x="632.6" y="277" width="15.2" height="15.0" fill="rgb(212,155,30)" rx="2" ry="2" />
<text  x="635.64" y="287.5" ></text>
</g>
<g >
<title>sock_def_readable (70 samples, 0.02%)</title><rect x="1184.8" y="101" width="0.3" height="15.0" fill="rgb(240,147,14)" rx="2" ry="2" />
<text  x="1187.84" y="111.5" ></text>
</g>
<g >
<title>__irq_usr (31 samples, 0.01%)</title><rect x="928.6" y="261" width="0.1" height="15.0" fill="rgb(246,223,36)" rx="2" ry="2" />
<text  x="931.57" y="271.5" ></text>
</g>
<g >
<title>__ret_fast_syscall (82 samples, 0.03%)</title><rect x="1185.6" y="245" width="0.3" height="15.0" fill="rgb(232,151,4)" rx="2" ry="2" />
<text  x="1188.59" y="255.5" ></text>
</g>
<g >
<title>schedule (41 samples, 0.01%)</title><rect x="1173.6" y="181" width="0.1" height="15.0" fill="rgb(245,104,6)" rx="2" ry="2" />
<text  x="1176.57" y="191.5" ></text>
</g>
<g >
<title>handle_domain_irq (71 samples, 0.03%)</title><rect x="1165.4" y="213" width="0.3" height="15.0" fill="rgb(232,4,27)" rx="2" ry="2" />
<text  x="1168.41" y="223.5" ></text>
</g>
<g >
<title>[unknown] (53,353 samples, 18.97%)</title><rect x="366.9" y="277" width="223.9" height="15.0" fill="rgb(248,82,29)" rx="2" ry="2" />
<text  x="369.95" y="287.5" >[unknown]</text>
</g>
<g >
<title>slow_work_pending (27 samples, 0.01%)</title><rect x="866.0" y="245" width="0.1" height="15.0" fill="rgb(246,151,3)" rx="2" ry="2" />
<text  x="868.97" y="255.5" ></text>
</g>
<g >
<title>do_work_pending (28 samples, 0.01%)</title><rect x="1165.7" y="229" width="0.2" height="15.0" fill="rgb(248,125,45)" rx="2" ry="2" />
<text  x="1168.74" y="239.5" ></text>
</g>
<g >
<title>finish_task_switch (25 samples, 0.01%)</title><rect x="648.2" y="133" width="0.1" height="15.0" fill="rgb(215,5,43)" rx="2" ry="2" />
<text  x="651.18" y="143.5" ></text>
</g>
<g >
<title>__alloc_pages (86 samples, 0.03%)</title><rect x="1184.2" y="69" width="0.3" height="15.0" fill="rgb(238,169,51)" rx="2" ry="2" />
<text  x="1187.15" y="79.5" ></text>
</g>
<g >
<title>slow_work_pending (28 samples, 0.01%)</title><rect x="1165.7" y="245" width="0.2" height="15.0" fill="rgb(228,91,41)" rx="2" ry="2" />
<text  x="1168.74" y="255.5" ></text>
</g>
<g >
<title>[libc-2.31.so] (176 samples, 0.06%)</title><rect x="1172.5" y="277" width="0.8" height="15.0" fill="rgb(213,123,48)" rx="2" ry="2" />
<text  x="1175.52" y="287.5" ></text>
</g>
<g >
<title>kmalloc_reserve.constprop.45 (38 samples, 0.01%)</title><rect x="1184.5" y="53" width="0.2" height="15.0" fill="rgb(234,28,49)" rx="2" ry="2" />
<text  x="1187.54" y="63.5" ></text>
</g>
<g >
<title>[libc-2.31.so] (40 samples, 0.01%)</title><rect x="1189.0" y="245" width="0.2" height="15.0" fill="rgb(241,1,30)" rx="2" ry="2" />
<text  x="1192.03" y="255.5" ></text>
</g>
<g >
<title>do_work_pending (59 samples, 0.02%)</title><rect x="301.3" y="229" width="0.2" height="15.0" fill="rgb(239,168,16)" rx="2" ry="2" />
<text  x="304.26" y="239.5" ></text>
</g>
<g >
<title>irq_exit (43 samples, 0.02%)</title><rect x="301.1" y="197" width="0.1" height="15.0" fill="rgb(213,165,12)" rx="2" ry="2" />
<text  x="304.06" y="207.5" ></text>
</g>
<g >
<title>__ret_fast_syscall (92 samples, 0.03%)</title><rect x="1173.6" y="261" width="0.3" height="15.0" fill="rgb(219,160,49)" rx="2" ry="2" />
<text  x="1176.56" y="271.5" ></text>
</g>
<g >
<title>bcm2836_arm_irqchip_handle_irq (26 samples, 0.01%)</title><rect x="350.6" y="245" width="0.1" height="15.0" fill="rgb(244,47,10)" rx="2" ry="2" />
<text  x="353.60" y="255.5" ></text>
</g>
<g >
<title>futex_wait (48 samples, 0.02%)</title><rect x="1173.6" y="213" width="0.2" height="15.0" fill="rgb(254,186,20)" rx="2" ry="2" />
<text  x="1176.56" y="223.5" ></text>
</g>
<g >
<title>bcm2836_arm_irqchip_handle_irq (43 samples, 0.02%)</title><rect x="301.1" y="229" width="0.1" height="15.0" fill="rgb(206,5,9)" rx="2" ry="2" />
<text  x="304.06" y="239.5" ></text>
</g>
<g >
<title>bcm2836_arm_irqchip_handle_irq (31 samples, 0.01%)</title><rect x="928.6" y="245" width="0.1" height="15.0" fill="rgb(230,168,36)" rx="2" ry="2" />
<text  x="931.57" y="255.5" ></text>
</g>
<g >
<title>__irq_usr (26 samples, 0.01%)</title><rect x="350.6" y="261" width="0.1" height="15.0" fill="rgb(210,22,35)" rx="2" ry="2" />
<text  x="353.60" y="271.5" ></text>
</g>
<g >
<title>vfs_writev (1,624 samples, 0.58%)</title><rect x="1178.4" y="197" width="6.8" height="15.0" fill="rgb(220,185,53)" rx="2" ry="2" />
<text  x="1181.40" y="207.5" ></text>
</g>
<g >
<title>unix_stream_sendmsg (1,584 samples, 0.56%)</title><rect x="1178.5" y="117" width="6.7" height="15.0" fill="rgb(212,112,29)" rx="2" ry="2" />
<text  x="1181.51" y="127.5" ></text>
</g>
<g >
<title>[unknown] (54,511 samples, 19.38%)</title><rect x="79.2" y="277" width="228.7" height="15.0" fill="rgb(233,198,46)" rx="2" ry="2" />
<text  x="82.17" y="287.5" >[unknown]</text>
</g>
<g >
<title>[swrast_dri.so] (4,130 samples, 1.47%)</title><rect x="928.9" y="277" width="17.4" height="15.0" fill="rgb(253,37,3)" rx="2" ry="2" />
<text  x="931.92" y="287.5" ></text>
</g>
<g >
<title>__ret_fast_syscall (60 samples, 0.02%)</title><rect x="1173.0" y="261" width="0.2" height="15.0" fill="rgb(241,164,35)" rx="2" ry="2" />
<text  x="1176.00" y="271.5" ></text>
</g>
<g >
<title>do_futex (53 samples, 0.02%)</title><rect x="946.5" y="213" width="0.2" height="15.0" fill="rgb(253,38,47)" rx="2" ry="2" />
<text  x="949.51" y="223.5" ></text>
</g>
<g >
<title>__wake_up_common_lock (66 samples, 0.02%)</title><rect x="1184.9" y="69" width="0.2" height="15.0" fill="rgb(231,146,37)" rx="2" ry="2" />
<text  x="1187.86" y="79.5" ></text>
</g>
<g >
<title>__se_sys_poll (58 samples, 0.02%)</title><rect x="1173.0" y="245" width="0.2" height="15.0" fill="rgb(227,148,4)" rx="2" ry="2" />
<text  x="1176.00" y="255.5" ></text>
</g>
<g >
<title>_raw_spin_unlock_irqrestore (30 samples, 0.01%)</title><rect x="79.7" y="149" width="0.1" height="15.0" fill="rgb(249,123,49)" rx="2" ry="2" />
<text  x="82.67" y="159.5" ></text>
</g>
<g >
<title>__kmalloc_track_caller (34 samples, 0.01%)</title><rect x="1184.6" y="37" width="0.1" height="15.0" fill="rgb(246,87,23)" rx="2" ry="2" />
<text  x="1187.55" y="47.5" ></text>
</g>
<g >
<title>slow_work_pending (61 samples, 0.02%)</title><rect x="301.3" y="245" width="0.2" height="15.0" fill="rgb(214,180,21)" rx="2" ry="2" />
<text  x="304.26" y="255.5" ></text>
</g>
<g >
<title>[swrast_dri.so] (1,442 samples, 0.51%)</title><rect x="1165.9" y="261" width="6.0" height="15.0" fill="rgb(254,2,50)" rx="2" ry="2" />
<text  x="1168.86" y="271.5" ></text>
</g>
<g >
<title>[perf-846.map] (51,880 samples, 18.45%)</title><rect x="648.4" y="261" width="217.7" height="15.0" fill="rgb(223,165,1)" rx="2" ry="2" />
<text  x="651.38" y="271.5" >[perf-846.map]</text>
</g>
<g >
<title>[swrast_dri.so] (1,429 samples, 0.51%)</title><rect x="866.1" y="261" width="6.0" height="15.0" fill="rgb(252,24,46)" rx="2" ry="2" />
<text  x="869.08" y="271.5" ></text>
</g>
<g >
<title>[unknown] (3,122 samples, 1.11%)</title><rect x="1176.9" y="277" width="13.1" height="15.0" fill="rgb(248,131,11)" rx="2" ry="2" />
<text  x="1179.90" y="287.5" ></text>
</g>
<g >
<title>bcm2836_arm_irqchip_handle_irq (76 samples, 0.03%)</title><rect x="865.7" y="229" width="0.3" height="15.0" fill="rgb(249,31,16)" rx="2" ry="2" />
<text  x="868.65" y="239.5" ></text>
</g>
<g >
<title>try_to_wake_up (45 samples, 0.02%)</title><rect x="1185.7" y="165" width="0.2" height="15.0" fill="rgb(248,27,49)" rx="2" ry="2" />
<text  x="1188.68" y="175.5" ></text>
</g>
<g >
<title>slow_work_pending (25 samples, 0.01%)</title><rect x="946.1" y="261" width="0.2" height="15.0" fill="rgb(240,54,26)" rx="2" ry="2" />
<text  x="949.15" y="271.5" ></text>
</g>
<g >
<title>futex_wait (35 samples, 0.01%)</title><rect x="648.2" y="197" width="0.1" height="15.0" fill="rgb(225,36,31)" rx="2" ry="2" />
<text  x="651.15" y="207.5" ></text>
</g>
<g >
<title>try_to_wake_up (30 samples, 0.01%)</title><rect x="79.7" y="165" width="0.1" height="15.0" fill="rgb(249,180,28)" rx="2" ry="2" />
<text  x="82.67" y="175.5" ></text>
</g>
<g >
<title>bcm2836_arm_irqchip_handle_irq (56 samples, 0.02%)</title><rect x="584.5" y="229" width="0.2" height="15.0" fill="rgb(207,115,46)" rx="2" ry="2" />
<text  x="587.50" y="239.5" ></text>
</g>
<g >
<title>__se_sys_futex_time32 (67 samples, 0.02%)</title><rect x="1185.6" y="229" width="0.3" height="15.0" fill="rgb(247,114,37)" rx="2" ry="2" />
<text  x="1188.59" y="239.5" ></text>
</g>
<g >
<title>__wake_up_sync_key (67 samples, 0.02%)</title><rect x="1184.9" y="85" width="0.2" height="15.0" fill="rgb(227,11,50)" rx="2" ry="2" />
<text  x="1187.85" y="95.5" ></text>
</g>
<g >
<title>all (281,205 samples, 100%)</title><rect x="10.0" y="309" width="1180.0" height="15.0" fill="rgb(231,213,28)" rx="2" ry="2" />
<text  x="13.00" y="319.5" ></text>
</g>
<g >
<title>wake_up_q (48 samples, 0.02%)</title><rect x="1185.7" y="181" width="0.2" height="15.0" fill="rgb(228,219,12)" rx="2" ry="2" />
<text  x="1188.67" y="191.5" ></text>
</g>
<g >
<title>do_futex (48 samples, 0.02%)</title><rect x="1173.6" y="229" width="0.2" height="15.0" fill="rgb(209,56,3)" rx="2" ry="2" />
<text  x="1176.56" y="239.5" ></text>
</g>
<g >
<title>[libGLdispatch.so.0.0.0] (45 samples, 0.02%)</title><rect x="1177.2" y="261" width="0.2" height="15.0" fill="rgb(231,227,9)" rx="2" ry="2" />
<text  x="1180.20" y="271.5" ></text>
</g>
<g >
<title>__sched_text_start (41 samples, 0.01%)</title><rect x="1173.6" y="165" width="0.1" height="15.0" fill="rgb(247,16,3)" rx="2" ry="2" />
<text  x="1176.57" y="175.5" ></text>
</g>
<g >
<title>do_work_pending (31 samples, 0.01%)</title><rect x="647.7" y="245" width="0.1" height="15.0" fill="rgb(253,94,52)" rx="2" ry="2" />
<text  x="650.70" y="255.5" ></text>
</g>
<g >
<title>[libarmmem-v7l.so] (9,918 samples, 3.53%)</title><rect x="590.8" y="277" width="41.6" height="15.0" fill="rgb(220,72,14)" rx="2" ry="2" />
<text  x="593.83" y="287.5" >[li..</text>
</g>
<g >
<title>[libarmmem-v7l.so] (122 samples, 0.04%)</title><rect x="1177.4" y="261" width="0.5" height="15.0" fill="rgb(215,114,25)" rx="2" ry="2" />
<text  x="1180.39" y="271.5" ></text>
</g>
<g >
<title>[libpthread-2.31.so] (106 samples, 0.04%)</title><rect x="946.3" y="261" width="0.4" height="15.0" fill="rgb(216,189,26)" rx="2" ry="2" />
<text  x="949.30" y="271.5" ></text>
</g>
<g >
<title>__irq_usr (76 samples, 0.03%)</title><rect x="865.7" y="245" width="0.3" height="15.0" fill="rgb(254,101,52)" rx="2" ry="2" />
<text  x="868.65" y="255.5" ></text>
</g>
<g >
<title>[unknown] (263 samples, 0.09%)</title><rect x="1188.9" y="261" width="1.1" height="15.0" fill="rgb(254,0,46)" rx="2" ry="2" />
<text  x="1191.90" y="271.5" ></text>
</g>
<g >
<title>irq_exit (71 samples, 0.03%)</title><rect x="1165.4" y="197" width="0.3" height="15.0" fill="rgb(215,142,13)" rx="2" ry="2" />
<text  x="1168.41" y="207.5" ></text>
</g>
<g >
<title>__irq_usr (56 samples, 0.02%)</title><rect x="584.5" y="245" width="0.2" height="15.0" fill="rgb(251,79,40)" rx="2" ry="2" />
<text  x="587.50" y="255.5" ></text>
</g>
<g >
<title>futex_wait_queue_me (27 samples, 0.01%)</title><rect x="946.5" y="181" width="0.1" height="15.0" fill="rgb(205,159,22)" rx="2" ry="2" />
<text  x="949.53" y="191.5" ></text>
</g>
<g >
<title>futex_wait (34 samples, 0.01%)</title><rect x="946.5" y="197" width="0.2" height="15.0" fill="rgb(243,197,33)" rx="2" ry="2" />
<text  x="949.51" y="207.5" ></text>
</g>
<g >
<title>[libpthread-2.31.so] (138 samples, 0.05%)</title><rect x="1185.4" y="261" width="0.5" height="15.0" fill="rgb(234,200,33)" rx="2" ry="2" />
<text  x="1188.36" y="271.5" ></text>
</g>
<g >
<title>[unknown] (53,781 samples, 19.13%)</title><rect x="946.3" y="277" width="225.6" height="15.0" fill="rgb(214,93,42)" rx="2" ry="2" />
<text  x="949.25" y="287.5" >[unknown]</text>
</g>
<g >
<title>__se_sys_futex_time32 (60 samples, 0.02%)</title><rect x="79.5" y="229" width="0.3" height="15.0" fill="rgb(229,187,3)" rx="2" ry="2" />
<text  x="82.54" y="239.5" ></text>
</g>
<g >
<title>[stars] (137 samples, 0.05%)</title><rect x="1189.3" y="245" width="0.6" height="15.0" fill="rgb(254,114,43)" rx="2" ry="2" />
<text  x="1192.30" y="255.5" ></text>
</g>
<g >
<title>__ret_fast_syscall (63 samples, 0.02%)</title><rect x="79.5" y="245" width="0.3" height="15.0" fill="rgb(223,55,25)" rx="2" ry="2" />
<text  x="82.54" y="255.5" ></text>
</g>
<g >
<title>_copy_from_iter (111 samples, 0.04%)</title><rect x="1178.6" y="85" width="0.5" height="15.0" fill="rgb(226,154,20)" rx="2" ry="2" />
<text  x="1181.65" y="95.5" ></text>
</g>
<g >
<title>[swrast_dri.so] (27 samples, 0.01%)</title><rect x="1189.9" y="245" width="0.1" height="15.0" fill="rgb(253,13,13)" rx="2" ry="2" />
<text  x="1192.88" y="255.5" ></text>
</g>
<g >
<title>do_sys_poll (52 samples, 0.02%)</title><rect x="1173.0" y="229" width="0.2" height="15.0" fill="rgb(243,29,51)" rx="2" ry="2" />
<text  x="1176.01" y="239.5" ></text>
</g>
<g >
<title>__copy_from_user_std (105 samples, 0.04%)</title><rect x="1178.7" y="69" width="0.4" height="15.0" fill="rgb(213,94,32)" rx="2" ry="2" />
<text  x="1181.67" y="79.5" ></text>
</g>
<g >
<title>[perf-846.map] (26 samples, 0.01%)</title><rect x="62.1" y="277" width="0.1" height="15.0" fill="rgb(216,79,50)" rx="2" ry="2" />
<text  x="65.07" y="287.5" ></text>
</g>
<g >
<title>[libpthread-2.31.so] (144 samples, 0.05%)</title><rect x="1173.4" y="277" width="0.6" height="15.0" fill="rgb(251,206,28)" rx="2" ry="2" />
<text  x="1176.35" y="287.5" ></text>
</g>
<g >
<title>__se_sys_futex_time32 (53 samples, 0.02%)</title><rect x="648.1" y="229" width="0.3" height="15.0" fill="rgb(205,168,0)" rx="2" ry="2" />
<text  x="651.15" y="239.5" ></text>
</g>
<g >
<title>futex_wait_queue_me (31 samples, 0.01%)</title><rect x="648.2" y="181" width="0.1" height="15.0" fill="rgb(233,40,0)" rx="2" ry="2" />
<text  x="651.16" y="191.5" ></text>
</g>
<g >
<title>get_page_from_freelist (79 samples, 0.03%)</title><rect x="1184.2" y="53" width="0.3" height="15.0" fill="rgb(223,61,39)" rx="2" ry="2" />
<text  x="1187.18" y="63.5" ></text>
</g>
<g >
<title>[stars] (328 samples, 0.12%)</title><rect x="1186.1" y="261" width="1.3" height="15.0" fill="rgb(254,183,36)" rx="2" ry="2" />
<text  x="1189.07" y="271.5" ></text>
</g>
<g >
<title>llvmpipe-0 (70,994 samples, 25.25%)</title><rect x="10.0" y="293" width="297.9" height="15.0" fill="rgb(245,148,1)" rx="2" ry="2" />
<text  x="13.00" y="303.5" >llvmpipe-0</text>
</g>
<g >
<title>sock_sendmsg (1,593 samples, 0.57%)</title><rect x="1178.5" y="133" width="6.7" height="15.0" fill="rgb(230,51,10)" rx="2" ry="2" />
<text  x="1181.47" y="143.5" ></text>
</g>
<g >
<title>[swrast_dri.so] (411 samples, 0.15%)</title><rect x="1175.2" y="277" width="1.7" height="15.0" fill="rgb(208,228,26)" rx="2" ry="2" />
<text  x="1178.17" y="287.5" ></text>
</g>
<g >
<title>llvmpipe-1 (67,423 samples, 23.98%)</title><rect x="307.9" y="293" width="282.9" height="15.0" fill="rgb(247,148,42)" rx="2" ry="2" />
<text  x="310.91" y="303.5" >llvmpipe-1</text>
</g>
<g >
<title>irq_exit (26 samples, 0.01%)</title><rect x="350.6" y="213" width="0.1" height="15.0" fill="rgb(224,180,7)" rx="2" ry="2" />
<text  x="353.60" y="223.5" ></text>
</g>
<g >
<title>__ret_fast_syscall (53 samples, 0.02%)</title><rect x="648.1" y="245" width="0.3" height="15.0" fill="rgb(213,207,52)" rx="2" ry="2" />
<text  x="651.15" y="255.5" ></text>
</g>
<g >
<title>__softirqentry_text_start (56 samples, 0.02%)</title><rect x="584.5" y="181" width="0.2" height="15.0" fill="rgb(243,185,26)" rx="2" ry="2" />
<text  x="587.50" y="191.5" ></text>
</g>
<g >
<title>do_futex (45 samples, 0.02%)</title><rect x="367.3" y="213" width="0.1" height="15.0" fill="rgb(236,192,45)" rx="2" ry="2" />
<text  x="370.26" y="223.5" ></text>
</g>
<g >
<title>skb_copy_datagram_from_iter (1,275 samples, 0.45%)</title><rect x="1178.6" y="101" width="5.4" height="15.0" fill="rgb(208,93,45)" rx="2" ry="2" />
<text  x="1181.62" y="111.5" ></text>
</g>
<g >
<title>[perf-846.map] (25 samples, 0.01%)</title><rect x="632.5" y="277" width="0.1" height="15.0" fill="rgb(207,202,23)" rx="2" ry="2" />
<text  x="635.54" y="287.5" ></text>
</g>
<g >
<title>[libarmmem-v7l.so] (13,510 samples, 4.80%)</title><rect x="872.1" y="277" width="56.7" height="15.0" fill="rgb(249,49,5)" rx="2" ry="2" />
<text  x="875.09" y="287.5" >[libar..</text>
</g>
<g >
<title>__irq_usr (43 samples, 0.02%)</title><rect x="301.1" y="245" width="0.1" height="15.0" fill="rgb(218,35,20)" rx="2" ry="2" />
<text  x="304.06" y="255.5" ></text>
</g>
<g >
<title>[swrast_dri.so] (4,049 samples, 1.44%)</title><rect x="62.2" y="277" width="17.0" height="15.0" fill="rgb(212,127,29)" rx="2" ry="2" />
<text  x="65.18" y="287.5" ></text>
</g>
<g >
<title>do_futex (51 samples, 0.02%)</title><rect x="648.1" y="213" width="0.3" height="15.0" fill="rgb(248,36,26)" rx="2" ry="2" />
<text  x="651.15" y="223.5" ></text>
</g>
<g >
<title>finish_task_switch (40 samples, 0.01%)</title><rect x="1173.6" y="149" width="0.1" height="15.0" fill="rgb(219,189,30)" rx="2" ry="2" />
<text  x="1176.58" y="159.5" ></text>
</g>
<g >
<title>[perf-846.map] (52,820 samples, 18.78%)</title><rect x="79.9" y="261" width="221.6" height="15.0" fill="rgb(207,41,41)" rx="2" ry="2" />
<text  x="82.87" y="271.5" >[perf-846.map]</text>
</g>
<g >
<title>handle_domain_irq (76 samples, 0.03%)</title><rect x="865.7" y="213" width="0.3" height="15.0" fill="rgb(227,219,17)" rx="2" ry="2" />
<text  x="868.65" y="223.5" ></text>
</g>
<g >
<title>futex_wait (30 samples, 0.01%)</title><rect x="367.3" y="197" width="0.1" height="15.0" fill="rgb(230,127,44)" rx="2" ry="2" />
<text  x="370.27" y="207.5" ></text>
</g>
<g >
<title>vfs_write (35 samples, 0.01%)</title><rect x="1173.8" y="213" width="0.1" height="15.0" fill="rgb(250,47,2)" rx="2" ry="2" />
<text  x="1176.80" y="223.5" ></text>
</g>
<g >
<title>[libarmmem-v7l.so] (63 samples, 0.02%)</title><rect x="1172.3" y="277" width="0.2" height="15.0" fill="rgb(251,90,34)" rx="2" ry="2" />
<text  x="1175.26" y="287.5" ></text>
</g>
<g >
<title>__alloc_skb (70 samples, 0.02%)</title><rect x="1184.5" y="69" width="0.3" height="15.0" fill="rgb(238,196,21)" rx="2" ry="2" />
<text  x="1187.51" y="79.5" ></text>
</g>
<g >
<title>__softirqentry_text_start (31 samples, 0.01%)</title><rect x="928.6" y="197" width="0.1" height="15.0" fill="rgb(210,57,13)" rx="2" ry="2" />
<text  x="931.57" y="207.5" ></text>
</g>
<g >
<title>irq_exit (31 samples, 0.01%)</title><rect x="928.6" y="213" width="0.1" height="15.0" fill="rgb(245,212,11)" rx="2" ry="2" />
<text  x="931.57" y="223.5" ></text>
</g>
<g >
<title>[perf-846.map] (51,796 samples, 18.42%)</title><rect x="367.5" y="261" width="217.3" height="15.0" fill="rgb(206,43,2)" rx="2" ry="2" />
<text  x="370.48" y="271.5" >[perf-846.map]</text>
</g>
<g >
<title>irq_exit (56 samples, 0.02%)</title><rect x="584.5" y="197" width="0.2" height="15.0" fill="rgb(214,130,2)" rx="2" ry="2" />
<text  x="587.50" y="207.5" ></text>
</g>
<g >
<title>__softirqentry_text_start (70 samples, 0.02%)</title><rect x="1165.4" y="181" width="0.3" height="15.0" fill="rgb(247,202,17)" rx="2" ry="2" />
<text  x="1168.41" y="191.5" ></text>
</g>
<g >
<title>[swrast_dri.so] (1,522 samples, 0.54%)</title><rect x="301.5" y="261" width="6.4" height="15.0" fill="rgb(233,206,15)" rx="2" ry="2" />
<text  x="304.51" y="271.5" ></text>
</g>
<g >
<title>[libc-2.31.so] (1,753 samples, 0.62%)</title><rect x="1177.9" y="261" width="7.4" height="15.0" fill="rgb(222,85,30)" rx="2" ry="2" />
<text  x="1180.90" y="271.5" ></text>
</g>
<g >
<title>[swrast_dri.so] (1,428 samples, 0.51%)</title><rect x="584.8" y="261" width="6.0" height="15.0" fill="rgb(240,92,8)" rx="2" ry="2" />
<text  x="587.83" y="271.5" ></text>
</g>
<g >
<title>futex_wake (56 samples, 0.02%)</title><rect x="1185.6" y="197" width="0.3" height="15.0" fill="rgb(239,34,0)" rx="2" ry="2" />
<text  x="1188.63" y="207.5" ></text>
</g>
<g >
<title>__sched_text_start (27 samples, 0.01%)</title><rect x="648.2" y="149" width="0.1" height="15.0" fill="rgb(240,202,52)" rx="2" ry="2" />
<text  x="651.17" y="159.5" ></text>
</g>
<g >
<title>do_writev (1,633 samples, 0.58%)</title><rect x="1178.4" y="213" width="6.8" height="15.0" fill="rgb(236,196,39)" rx="2" ry="2" />
<text  x="1181.36" y="223.5" ></text>
</g>
<g >
<title>alloc_skb_with_frags (166 samples, 0.06%)</title><rect x="1184.1" y="85" width="0.7" height="15.0" fill="rgb(253,80,35)" rx="2" ry="2" />
<text  x="1187.13" y="95.5" ></text>
</g>
<g >
<title>irq_exit (76 samples, 0.03%)</title><rect x="865.7" y="197" width="0.3" height="15.0" fill="rgb(227,48,52)" rx="2" ry="2" />
<text  x="868.65" y="207.5" ></text>
</g>
<g >
<title>bcm2836_arm_irqchip_handle_irq (71 samples, 0.03%)</title><rect x="1165.4" y="229" width="0.3" height="15.0" fill="rgb(239,32,54)" rx="2" ry="2" />
<text  x="1168.41" y="239.5" ></text>
</g>
<g >
<title>__softirqentry_text_start (26 samples, 0.01%)</title><rect x="350.6" y="197" width="0.1" height="15.0" fill="rgb(219,196,20)" rx="2" ry="2" />
<text  x="353.60" y="207.5" ></text>
</g>
<g >
<title>__se_sys_write (37 samples, 0.01%)</title><rect x="1173.8" y="245" width="0.1" height="15.0" fill="rgb(233,35,10)" rx="2" ry="2" />
<text  x="1176.79" y="255.5" ></text>
</g>
<g >
<title>do_iter_readv_writev (1,604 samples, 0.57%)</title><rect x="1178.4" y="165" width="6.8" height="15.0" fill="rgb(222,21,27)" rx="2" ry="2" />
<text  x="1181.43" y="175.5" ></text>
</g>
<g >
<title>[libpthread-2.31.so] (115 samples, 0.04%)</title><rect x="367.0" y="261" width="0.5" height="15.0" fill="rgb(235,4,8)" rx="2" ry="2" />
<text  x="370.00" y="271.5" ></text>
</g>
<g >
<title>__ret_fast_syscall (1,644 samples, 0.58%)</title><rect x="1178.3" y="245" width="6.9" height="15.0" fill="rgb(249,185,13)" rx="2" ry="2" />
<text  x="1181.33" y="255.5" ></text>
</g>
<g >
<title>_raw_spin_unlock_irqrestore (66 samples, 0.02%)</title><rect x="1184.9" y="53" width="0.2" height="15.0" fill="rgb(215,116,33)" rx="2" ry="2" />
<text  x="1187.86" y="63.5" ></text>
</g>
<g >
<title>run_rebalance_domains (26 samples, 0.01%)</title><rect x="865.8" y="165" width="0.1" height="15.0" fill="rgb(245,186,43)" rx="2" ry="2" />
<text  x="868.76" y="175.5" ></text>
</g>
<g >
<title>llvmpipe-2 (67,028 samples, 23.84%)</title><rect x="590.8" y="293" width="281.3" height="15.0" fill="rgb(222,132,33)" rx="2" ry="2" />
<text  x="593.83" y="303.5" >llvmpipe-2</text>
</g>
<g >
<title>do_futex (59 samples, 0.02%)</title><rect x="79.5" y="213" width="0.3" height="15.0" fill="rgb(223,183,4)" rx="2" ry="2" />
<text  x="82.55" y="223.5" ></text>
</g>
<g >
<title>stars (4,306 samples, 1.53%)</title><rect x="1171.9" y="293" width="18.1" height="15.0" fill="rgb(208,161,22)" rx="2" ry="2" />
<text  x="1174.93" y="303.5" ></text>
</g>
<g >
<title>__softirqentry_text_start (43 samples, 0.02%)</title><rect x="301.1" y="181" width="0.1" height="15.0" fill="rgb(242,221,29)" rx="2" ry="2" />
<text  x="304.06" y="191.5" ></text>
</g>
<g >
<title>slow_work_pending (32 samples, 0.01%)</title><rect x="647.7" y="261" width="0.1" height="15.0" fill="rgb(247,136,29)" rx="2" ry="2" />
<text  x="650.70" y="271.5" ></text>
</g>
<g >
<title>[stars] (275 samples, 0.10%)</title><rect x="1174.0" y="277" width="1.2" height="15.0" fill="rgb(211,82,51)" rx="2" ry="2" />
<text  x="1177.02" y="287.5" ></text>
</g>
<g >
<title>__copy_from_user_std (1,144 samples, 0.41%)</title><rect x="1179.1" y="69" width="4.8" height="15.0" fill="rgb(247,51,9)" rx="2" ry="2" />
<text  x="1182.14" y="79.5" ></text>
</g>
<g >
<title>sock_alloc_send_pskb (171 samples, 0.06%)</title><rect x="1184.1" y="101" width="0.7" height="15.0" fill="rgb(243,62,40)" rx="2" ry="2" />
<text  x="1187.12" y="111.5" ></text>
</g>
<g >
<title>_raw_spin_unlock_irqrestore (45 samples, 0.02%)</title><rect x="1185.7" y="149" width="0.2" height="15.0" fill="rgb(209,198,33)" rx="2" ry="2" />
<text  x="1188.68" y="159.5" ></text>
</g>
<g >
<title>__softirqentry_text_start (76 samples, 0.03%)</title><rect x="865.7" y="181" width="0.3" height="15.0" fill="rgb(207,174,29)" rx="2" ry="2" />
<text  x="868.65" y="191.5" ></text>
</g>
<g >
<title>do_iter_write (1,613 samples, 0.57%)</title><rect x="1178.4" y="181" width="6.8" height="15.0" fill="rgb(251,196,16)" rx="2" ry="2" />
<text  x="1181.41" y="191.5" ></text>
</g>
<g >
<title>file_tty_write.constprop.13 (31 samples, 0.01%)</title><rect x="1173.8" y="181" width="0.1" height="15.0" fill="rgb(208,229,18)" rx="2" ry="2" />
<text  x="1176.81" y="191.5" ></text>
</g>
<g >
<title>[libarmmem-v7l.so] (10,219 samples, 3.63%)</title><rect x="307.9" y="277" width="42.9" height="15.0" fill="rgb(231,12,22)" rx="2" ry="2" />
<text  x="310.91" y="287.5" >[lib..</text>
</g>
<g >
<title>sock_write_iter (1,596 samples, 0.57%)</title><rect x="1178.5" y="149" width="6.7" height="15.0" fill="rgb(210,10,45)" rx="2" ry="2" />
<text  x="1181.46" y="159.5" ></text>
</g>
<g >
<title>skb_queue_tail (33 samples, 0.01%)</title><rect x="1184.0" y="101" width="0.1" height="15.0" fill="rgb(217,106,2)" rx="2" ry="2" />
<text  x="1186.97" y="111.5" ></text>
</g>
<g >
<title>futex_wait_queue_me (43 samples, 0.02%)</title><rect x="1173.6" y="197" width="0.1" height="15.0" fill="rgb(207,74,20)" rx="2" ry="2" />
<text  x="1176.56" y="207.5" ></text>
</g>
<g >
<title>[libEGL_mesa.so.0.0.0] (29 samples, 0.01%)</title><rect x="1177.1" y="261" width="0.1" height="15.0" fill="rgb(208,80,27)" rx="2" ry="2" />
<text  x="1180.08" y="271.5" ></text>
</g>
<g >
<title>run_rebalance_domains (30 samples, 0.01%)</title><rect x="584.6" y="165" width="0.1" height="15.0" fill="rgb(242,57,43)" rx="2" ry="2" />
<text  x="587.58" y="175.5" ></text>
</g>
<g >
<title>tty_write (32 samples, 0.01%)</title><rect x="1173.8" y="197" width="0.1" height="15.0" fill="rgb(236,32,44)" rx="2" ry="2" />
<text  x="1176.81" y="207.5" ></text>
</g>
</g>
</svg>
